<svg width="28" height="24" viewBox="0 0 28 24" fill="none" xmlns="http://www.w3.org/2000/svg">
<path d="M10.9605 23.5842C11.2456 23.8565 11.6263 24.0057 12.0205 23.9998C12.4146 23.9939 12.7907 23.8333 13.0675 23.5525C13.3443 23.2718 13.4996 22.8935 13.4999 22.4993C13.5003 22.1051 13.3456 21.7265 13.0693 21.4453L5.00357 13.4967H25.5359C25.9342 13.4967 26.3163 13.3385 26.598 13.0568C26.8796 12.7751 27.0379 12.3931 27.0379 11.9947C27.0379 11.5964 26.8796 11.2143 26.598 10.9327C26.3163 10.651 25.9342 10.4927 25.5359 10.4927H5.01409L13.0708 2.55468C13.3471 2.27348 13.5018 1.89492 13.5014 1.5007C13.5011 1.10647 13.3458 0.728186 13.069 0.447463C12.7922 0.166739 12.4161 0.00608634 12.022 0.000169398C11.6278 -0.00574754 11.2471 0.143546 10.962 0.415835L0.559157 10.6625C0.382047 10.8371 0.241411 11.0453 0.145421 11.2747C0.049431 11.5042 0 11.7505 0 11.9992C0 12.248 0.049431 12.4943 0.145421 12.7238C0.241411 12.9532 0.382047 13.1614 0.559157 13.336L10.959 23.5842H10.9605Z" fill="white"/>
</svg>
