<svg width="28" height="28" viewBox="0 0 28 28" fill="none" xmlns="http://www.w3.org/2000/svg">
<rect width="28" height="28" fill="#1C7ED6"/>
<path d="M8.00341 4.73597C8.12224 4.79309 8.22252 4.8826 8.29269 4.9942C8.36287 5.10579 8.40009 5.23493 8.40008 5.36674C8.40008 6.1412 8.69128 6.58722 9.05621 7.13027L9.08328 7.16946C9.39315 7.6304 9.80008 8.23411 9.80008 9.09908C9.80008 9.98178 9.35488 10.76 8.67635 11.2218C8.85461 11.3711 9.01235 11.555 9.14861 11.7752C9.59288 12.4936 9.80008 13.5919 9.80008 15.1688C9.80008 16.7662 9.58541 18.6847 9.23541 20.2168C9.06181 20.9782 8.84621 21.6808 8.58955 22.208C8.46837 22.4703 8.30786 22.7126 8.11355 22.9265C7.92128 23.1233 7.62541 23.3333 7.23341 23.3333C6.84142 23.3333 6.54555 23.1233 6.35422 22.9265C6.15934 22.713 5.99877 22.4706 5.87822 22.208C5.62062 21.6799 5.40502 20.9782 5.23142 20.2159C4.86737 18.5575 4.67811 16.8656 4.66675 15.1679C4.66675 13.591 4.87395 12.4936 5.31822 11.7752C5.44496 11.5666 5.60442 11.3798 5.79048 11.2218C5.444 10.9867 5.16042 10.6702 4.96453 10.3002C4.76864 9.93014 4.6664 9.51775 4.66675 9.09908C4.66675 8.7557 4.66675 8.16506 5.02422 7.40273C5.37422 6.65626 6.03968 5.79876 7.26235 4.81995C7.3654 4.73755 7.48964 4.68594 7.62076 4.67108C7.75188 4.65622 7.88453 4.67872 8.00341 4.73597V4.73597ZM12.1334 16.7196C11.6389 16.6367 11.158 16.4873 10.7035 16.2754C10.7231 15.8966 10.7334 15.5252 10.7334 15.1688C10.7334 14.79 10.7222 14.4279 10.6979 14.0827C11.1114 14.4233 11.5995 14.6761 12.1334 14.8133V12.5981C12.1334 12.2269 12.2809 11.8709 12.5435 11.6085C12.806 11.346 13.1621 11.1985 13.5334 11.1985H16.8001C16.8002 10.4866 16.5966 9.78945 16.2133 9.1894C15.8301 8.58935 15.2831 8.1114 14.6371 7.81194C13.991 7.51248 13.2727 7.40401 12.567 7.49931C11.8613 7.59461 11.1975 7.88972 10.6541 8.34981C10.4926 7.59028 10.1174 7.03416 9.87755 6.67866L9.84021 6.62267C10.6788 6.0317 11.6636 5.68239 12.6872 5.61288C13.7108 5.54336 14.7339 5.75632 15.6447 6.22849C16.5555 6.70067 17.319 7.41391 17.852 8.29037C18.3849 9.16684 18.6667 10.1728 18.6667 11.1985H21.9334C22.3047 11.1985 22.6608 11.346 22.9234 11.6085C23.1859 11.8709 23.3334 12.2269 23.3334 12.5981V20.9959C23.3334 21.3671 23.1859 21.7231 22.9234 21.9856C22.6608 22.2481 22.3047 22.3955 21.9334 22.3955H13.5334C13.1621 22.3955 12.806 22.2481 12.5435 21.9856C12.2809 21.7231 12.1334 21.3671 12.1334 20.9959V16.7196ZM14.0001 16.7196V20.5294H21.4667V13.0647H18.3485C18.0148 14.006 17.4358 14.8411 16.6711 15.4836C15.9065 16.1262 14.984 16.5529 13.9991 16.7196H14.0001ZM16.3007 13.0647H14.0001V14.8133C14.4804 14.6889 14.9312 14.4703 15.3261 14.1701C15.7211 13.8699 16.0524 13.4941 16.3007 13.0647V13.0647Z" fill="white"/>
</svg>
